<svg width="503" height="490" viewBox="0 0 503 490" fill="none" xmlns="http://www.w3.org/2000/svg">
<path d="M413.245 0H88.9262C39.8136 0 0 39.8136 0 88.9262V400.691C0 449.803 39.8136 489.617 88.9262 489.617H413.245C462.358 489.617 502.171 449.803 502.171 400.691V88.9262C502.171 39.8136 462.358 0 413.245 0Z" fill="#330000"/>
<path d="M243.344 293.829H165.526L149.694 343.013C149.478 343.91 148.956 344.703 148.218 345.257C147.48 345.81 146.572 346.089 145.651 346.045H106.237C103.989 346.045 103.203 344.81 103.879 342.339L171.253 148.3C171.927 146.279 172.601 143.977 173.275 141.394C174.156 136.899 174.607 132.331 174.622 127.751C174.577 127.431 174.606 127.104 174.708 126.797C174.811 126.49 174.983 126.211 175.212 125.983C175.441 125.754 175.72 125.581 176.027 125.479C176.333 125.377 176.66 125.347 176.98 125.393H230.542C232.112 125.393 233.01 125.954 233.238 127.077L309.709 342.676C310.382 344.923 309.708 346.046 307.687 346.045H263.893C263.141 346.128 262.384 345.935 261.764 345.501C261.144 345.067 260.703 344.422 260.524 343.687L243.344 293.829ZM177.654 251.383H230.88C229.532 246.894 227.96 241.84 226.164 236.224C224.363 230.613 222.455 224.605 220.437 218.201C218.415 211.801 216.394 205.4 214.373 198.999C212.352 192.599 210.499 186.423 208.815 180.471C207.13 174.524 205.614 169.078 204.267 164.133H203.93C202.034 173.231 199.672 182.226 196.856 191.083C193.708 201.189 190.508 211.52 187.254 222.075C183.996 232.634 180.796 242.404 177.654 251.383H177.654Z" fill="#FF9A00"/>
<path d="M355.182 161.101C351.746 161.239 348.32 160.651 345.127 159.374C341.934 158.096 339.047 156.16 336.654 153.69C334.268 151.114 332.414 148.091 331.2 144.796C329.986 141.5 329.435 137.997 329.579 134.489C329.457 131.014 330.068 127.553 331.375 124.332C332.681 121.11 334.652 118.2 337.159 115.792C339.642 113.409 342.573 111.542 345.782 110.298C348.991 109.055 352.415 108.461 355.855 108.549C363.941 108.549 370.285 110.964 374.889 115.792C377.213 118.301 379.019 121.244 380.204 124.452C381.389 127.661 381.929 131.071 381.795 134.489C381.935 138.011 381.367 141.526 380.123 144.825C378.879 148.123 376.984 151.138 374.552 153.69C372.01 156.196 368.977 158.148 365.643 159.424C362.309 160.699 358.748 161.27 355.182 161.101ZM331.937 342.676V181.65C331.937 179.63 332.832 178.619 334.632 178.619H376.068C377.863 178.619 378.762 179.629 378.763 181.65V342.676C378.763 344.923 377.865 346.046 376.068 346.045H334.969C332.949 346.045 331.938 344.922 331.937 342.676V342.676Z" fill="#FF9A00"/>
</svg>
