<svg width="1017" height="1552" viewBox="0 0 1017 1552" fill="none" xmlns="http://www.w3.org/2000/svg">
<path d="M508.059 775.564C508.059 758.589 509.686 741.777 512.94 725.129C516.194 708.48 521.013 692.314 527.396 676.632C533.779 660.949 541.604 646.051 550.871 631.937C560.137 617.823 570.668 604.764 582.463 592.762C594.257 580.758 607.089 570.042 620.957 560.611C634.826 551.18 649.466 543.217 664.876 536.721C680.286 530.225 696.171 525.321 712.53 522.01C728.889 518.698 745.409 517.042 762.089 517.042C778.768 517.042 795.288 518.698 811.647 522.01C828.007 525.321 843.891 530.225 859.301 536.721C874.712 543.217 889.351 551.18 903.22 560.611C917.088 570.042 929.92 580.758 941.715 592.762C953.509 604.764 964.04 617.823 973.306 631.937C982.573 646.051 990.398 660.949 996.781 676.632C1003.16 692.314 1007.98 708.48 1011.24 725.129C1014.49 741.777 1016.12 758.589 1016.12 775.564C1016.12 792.538 1014.49 809.35 1011.24 825.999C1007.98 842.647 1003.16 858.813 996.781 874.495C990.398 890.178 982.573 905.076 973.306 919.19C964.04 933.304 953.509 946.363 941.715 958.366C929.92 970.369 917.088 981.085 903.22 990.516C889.351 999.947 874.712 1007.91 859.301 1014.41C843.891 1020.9 828.007 1025.81 811.647 1029.12C795.288 1032.43 778.768 1034.08 762.089 1034.08C745.409 1034.08 728.889 1032.43 712.53 1029.12C696.171 1025.81 680.286 1020.9 664.876 1014.41C649.466 1007.91 634.826 999.947 620.957 990.516C607.089 981.085 594.257 970.369 582.463 958.366C570.668 946.363 560.137 933.304 550.871 919.19C541.604 905.076 533.779 890.178 527.396 874.495C521.013 858.813 516.194 842.647 512.94 825.999C509.686 809.35 508.059 792.538 508.059 775.564Z" fill="#1ABCFE"/>
<path d="M0 1292.61C-1.98839e-06 1275.63 1.62703 1258.82 4.8811 1242.17C8.13517 1225.52 12.9538 1209.36 19.3368 1193.67C25.7199 1177.99 33.5449 1163.09 42.8117 1148.98C52.0785 1134.87 62.6091 1121.81 74.4035 1109.8C86.1979 1097.8 99.0295 1087.08 112.898 1077.65C126.767 1068.22 141.407 1060.26 156.817 1053.76C172.227 1047.27 188.112 1042.36 204.471 1039.05C220.83 1035.74 237.35 1034.08 254.03 1034.08H508.059V1292.61C508.059 1309.58 506.432 1326.39 503.178 1343.04C499.924 1359.69 495.105 1375.86 488.722 1391.54C482.339 1407.22 474.514 1422.12 465.247 1436.23C455.981 1450.35 445.45 1463.41 433.656 1475.41C421.861 1487.41 409.03 1498.13 395.161 1507.56C381.292 1516.99 366.653 1524.95 351.242 1531.45C335.832 1537.94 319.948 1542.85 303.588 1546.16C287.229 1549.47 270.709 1551.13 254.03 1551.13C237.35 1551.13 220.83 1549.47 204.471 1546.16C188.112 1542.85 172.227 1537.94 156.817 1531.45C141.407 1524.95 126.767 1516.99 112.898 1507.56C99.0295 1498.13 86.1979 1487.41 74.4035 1475.41C62.6091 1463.41 52.0785 1450.35 42.8117 1436.23C33.5449 1422.12 25.7199 1407.22 19.3368 1391.54C12.9538 1375.86 8.13518 1359.69 4.88111 1343.04C1.62704 1326.39 0 1309.58 0 1292.61Z" fill="#0ACF83"/>
<path d="M508.059 -2.28882e-05V517.043H762.089C778.768 517.042 795.288 515.387 811.647 512.075C828.007 508.763 843.891 503.86 859.301 497.364C874.712 490.868 889.351 482.904 903.22 473.474C917.088 464.043 929.92 453.326 941.715 441.323C953.509 429.32 964.04 416.262 973.306 402.148C982.573 388.034 990.398 373.136 996.781 357.453C1003.16 341.77 1007.98 325.605 1011.24 308.956C1014.49 292.308 1016.12 275.496 1016.12 258.521C1016.12 241.546 1014.49 224.735 1011.24 208.086C1007.98 191.438 1003.16 175.272 996.781 159.589C990.398 143.907 982.573 129.009 973.306 114.895C964.04 100.781 953.509 87.7221 941.715 75.7191C929.92 63.7161 917.088 52.9993 903.22 43.5687C889.351 34.138 874.712 26.1747 859.301 19.6787C843.891 13.1828 828.007 8.279 811.647 4.96739C795.288 1.65578 778.768 -2.28882e-05 762.089 -2.28882e-05H508.059Z" fill="#FF7262"/>
<path d="M0 258.521C0 275.496 1.62704 292.308 4.88111 308.956C8.13518 325.605 12.9538 341.77 19.3368 357.453C25.7199 373.136 33.5449 388.034 42.8117 402.148C52.0785 416.262 62.6091 429.32 74.4035 441.323C86.1979 453.326 99.0295 464.043 112.898 473.474C126.767 482.904 141.407 490.868 156.817 497.364C172.227 503.86 188.112 508.763 204.471 512.075C220.83 515.387 237.35 517.042 254.03 517.043H508.059V0H254.03C237.35 -2.02355e-06 220.83 1.6558 204.471 4.96741C188.112 8.27902 172.227 13.1828 156.817 19.6788C141.407 26.1747 126.767 34.138 112.898 43.5687C99.0295 52.9993 86.198 63.7162 74.4035 75.7191C62.6091 87.7221 52.0785 100.781 42.8117 114.895C33.5449 129.009 25.7199 143.907 19.3368 159.589C12.9538 175.272 8.13518 191.438 4.88111 208.086C1.62704 224.735 0 241.547 0 258.521Z" fill="#F24E1E"/>
<path d="M0 775.564C0 792.538 1.62704 809.35 4.88111 825.999C8.13518 842.647 12.9538 858.813 19.3368 874.495C25.7199 890.178 33.5449 905.076 42.8117 919.19C52.0785 933.304 62.6091 946.363 74.4035 958.366C86.1979 970.369 99.0295 981.085 112.898 990.516C126.767 999.947 141.407 1007.91 156.817 1014.41C172.227 1020.9 188.112 1025.81 204.471 1029.12C220.83 1032.43 237.35 1034.08 254.03 1034.08H508.059V517.042H254.03C237.35 517.042 220.83 518.698 204.471 522.01C188.112 525.321 172.227 530.225 156.817 536.721C141.407 543.217 126.767 551.18 112.898 560.611C99.0295 570.042 86.198 580.759 74.4035 592.762C62.6091 604.765 52.0785 617.823 42.8117 631.937C33.5449 646.051 25.7199 660.949 19.3368 676.632C12.9538 692.315 8.13518 708.48 4.88111 725.129C1.62704 741.777 0 758.589 0 775.564Z" fill="#A259FF"/>
</svg>
