<svg width="640" height="640" viewBox="0 0 640 640" fill="none" xmlns="http://www.w3.org/2000/svg">
<path d="M177.778 0C79.7511 0 0 79.7511 0 177.778V462.222C0 560.249 79.7511 640 177.778 640H462.222C560.249 640 640 560.249 640 462.222V177.778C640 79.7511 560.249 0 462.222 0H177.778ZM177.778 71.1111H462.222C521.031 71.1111 568.889 118.969 568.889 177.778V462.222C568.889 521.031 521.031 568.889 462.222 568.889H177.778C118.969 568.889 71.1111 521.031 71.1111 462.222V177.778C71.1111 118.969 118.969 71.1111 177.778 71.1111ZM497.778 106.667C488.348 106.667 479.304 110.413 472.636 117.081C465.968 123.749 462.222 132.792 462.222 142.222C462.222 151.652 465.968 160.696 472.636 167.364C479.304 174.032 488.348 177.778 497.778 177.778C507.208 177.778 516.251 174.032 522.919 167.364C529.587 160.696 533.333 151.652 533.333 142.222C533.333 132.792 529.587 123.749 522.919 117.081C516.251 110.413 507.208 106.667 497.778 106.667ZM320 142.222C221.973 142.222 142.222 221.973 142.222 320C142.222 418.027 221.973 497.778 320 497.778C418.027 497.778 497.778 418.027 497.778 320C497.778 221.973 418.027 142.222 320 142.222ZM320 213.333C378.809 213.333 426.667 261.191 426.667 320C426.667 378.809 378.809 426.667 320 426.667C261.191 426.667 213.333 378.809 213.333 320C213.333 261.191 261.191 213.333 320 213.333Z" fill="white"/>
</svg>
