<?xml version="1.0" encoding="UTF-8"?>
<svg id="Layer_2" data-name="Layer 2" xmlns="http://www.w3.org/2000/svg" viewBox="0 0 1575.45 754.01">
  <g id="Layer_12" data-name="Layer 12">
    <g>
      <path d="M93.12,281.02l-24.39,75.21c-1.02,2.54-2.54,4.07-5.59,4.07H4.19c-3.56,0-4.57-2.03-4.07-5.08L101.76,62c2.03-5.59,4.07-11.69,5.08-31,0-2.03,1.52-3.56,3.05-3.56h81.31c2.54,0,3.56,.51,4.07,3.05l115.36,325.23c1.02,2.54,.51,4.57-2.54,4.57h-66.06c-3.05,0-4.57-1.02-5.59-3.56l-25.92-75.72H93.12Zm98.59-63.52c-10.16-33.54-30.49-95.03-40.15-131.11h-.51c-8.13,34.05-26.43,89.95-39.64,131.11h80.29Z"/>
      <path d="M403.62,107.73c3.56,0,5.08,1.52,6.1,4.57,2.54,6.61,5.08,17.28,5.59,28.46,16.77-19.82,44.72-38.11,80.8-38.11,3.05,0,4.07,1.02,4.07,4.07v62.51c0,2.54-1.02,3.56-4.57,3.56-36.59-1.52-66.06,9.66-76.73,21.85l-.51,161.6c0,3.05-1.02,4.07-4.57,4.07h-60.98c-4.07,0-5.08-1.52-5.08-4.57V180.4c0-21.85-.51-51.33-2.54-69.11,0-2.54,.51-3.56,3.05-3.56h55.39Z"/>
      <path d="M769.5,107.73c3.56,0,5.08,2.54,3.05,5.08-15.75,18.8-76.74,86.39-96.05,107.23-.51,.51-.51,1.52,0,2.03,29.47,36.59,77.75,95.54,109.26,133.65,2.03,1.52,.51,4.57-2.54,4.57h-80.8c-3.56,0-4.57-1.52-6.61-3.56-15.75-19.31-59.46-76.73-83.34-108.24v106.72c0,3.56-1.02,5.08-4.57,5.08h-61.49c-4.07,0-5.08-1.52-5.08-5.08V4.07c0-2.03,1.02-4.07,5.08-4.07h61.49c2.54,0,4.57,1.02,4.57,4.07V212.93c26.43-31.51,73.69-88.42,84.36-101.64,2.54-3.05,4.07-3.56,7.11-3.56h65.56Z"/>
      <path d="M1011.39,303.89c0,13.21,0,23.88,1.02,36.08,0,1.02,0,2.03-1.02,2.54-44.72,17.28-74.19,22.87-110.78,22.87-56.41,0-102.65-25.92-102.65-84.87,0-53.87,47.26-82.32,114.85-82.32,13.72,0,25.41,0,29.98,1.02v-3.56c0-9.66-6.1-32.02-48.79-32.02-25.41,0-47.77,5.08-67.08,13.72-2.03,1.02-4.57,0-4.57-2.54v-51.33c0-2.54,.51-4.07,3.56-5.08,22.36-10.67,51.33-15.75,79.78-15.75,73.18,0,105.7,45.23,105.7,103.16v98.08Zm-68.6-52.34c-8.13-1.02-15.25-1.52-25.41-1.52-36.08,0-50.82,11.69-50.82,29.98,0,16.77,12.71,30.49,44.72,30.49,11.69,0,21.85-1.52,31.51-4.57v-54.38Z"/>
      <path d="M527.09,669.65l-24.39,75.21c-1.02,2.54-2.54,4.07-5.59,4.07h-58.95c-3.56,0-4.57-2.03-4.07-5.08l101.64-293.22c2.03-5.59,4.07-11.69,5.08-31,0-2.03,1.52-3.56,3.05-3.56h81.31c2.54,0,3.56,.51,4.07,3.05l115.36,325.23c1.02,2.54,.51,4.57-2.54,4.57h-66.06c-3.05,0-4.57-1.02-5.59-3.56l-25.92-75.72h-117.39Zm98.59-63.52c-10.16-33.54-30.49-95.03-40.15-131.11h-.51c-8.13,34.05-26.43,89.95-39.64,131.11h80.29Z"/>
      <path d="M1001.22,692.52c0,25.92,2.03,41.67,3.05,52.34,.51,3.05-1.02,4.07-4.57,4.07h-53.87c-4.07,0-5.08-1.02-6.1-3.56-1.02-4.57-2.54-11.18-3.05-15.75-22.36,19.31-47.77,24.39-69.62,24.39-50.82,0-85.88-27.95-85.88-98.08v-155.5c0-3.56,1.02-4.07,4.57-4.07h62c3.05,0,3.56,1.02,3.56,4.07v147.37c0,27.44,11.69,45.23,39.64,45.23,16.77,0,28.46-5.08,39.64-14.74v-177.86c0-3.05,1.52-4.07,5.08-4.07h61.49c3.56,0,4.07,1.02,4.07,4.07v192.09Z"/>
      <path d="M1214.66,102.65c-26.93,0-50.82,8.64-72.16,25.92-1.02-7.11-2.03-12.2-4.07-16.77-1.02-2.54-2.54-4.07-6.61-4.07h-53.36c-3.05,0-4.07,1.52-3.56,4.07,1.02,11.18,2.03,37.61,2.03,54.88v182.48c0,.07,0,.14,0,.22v334.5c0,56.41,27.44,70.13,64.03,70.13,15.75,0,25.41-2.03,31.51-4.57,3.05-1.02,3.56-2.03,3.56-6.1v-43.7c0-2.54-.51-3.56-2.54-3.56-4.57,.51-5.08,.51-9.15,.51-12.2,0-16.77-5.08-16.77-19.31V356.31s0-.05,0-.07V179.9c10.67-9.66,24.9-15.75,42.18-15.75,26.42,0,39.64,16.26,39.64,46.75v144.83c0,3.05,1.52,4.57,5.08,4.57h60.98c3.56,0,4.57-1.52,4.57-4.57V204.8c0-81.82-46.24-102.14-85.37-102.14Z"/>
      <path d="M1225.83,429.79c0-22.87,16.77-39.13,39.64-39.13,24.39,0,39.13,16.26,39.13,39.13s-15.75,39.64-39.64,39.64-39.13-15.75-39.13-39.64Zm3.56,70.64c0-2.54,1.02-4.07,4.07-4.07h62.51c3.05,0,4.07,1.02,4.07,4.07v243.93c0,3.05-.51,4.57-4.57,4.57h-60.98c-3.56,0-5.08-1.52-5.08-4.57v-243.93Z"/>
      <path d="M1574.43,692.52c0,13.21,0,23.88,1.02,36.08,0,1.02,0,2.03-1.02,2.54-44.72,17.28-74.19,22.87-110.78,22.87-56.41,0-102.65-25.92-102.65-84.87,0-53.87,47.26-82.33,114.85-82.33,13.72,0,25.41,0,29.98,1.02v-3.56c0-9.66-6.1-32.01-48.79-32.01-25.41,0-47.77,5.08-67.08,13.72-2.03,1.02-4.57,0-4.57-2.54v-51.33c0-2.54,.51-4.07,3.56-5.08,22.36-10.67,51.33-15.75,79.78-15.75,73.18,0,105.7,45.23,105.7,103.16v98.08Zm-68.6-52.34c-8.13-1.02-15.25-1.52-25.41-1.52-36.08,0-50.82,11.69-50.82,29.98,0,16.77,12.71,30.49,44.72,30.49,11.69,0,21.85-1.52,31.51-4.57v-54.38Z"/>
    </g>
  </g>
</svg>