<svg width="1576" height="755" viewBox="0 0 1576 755" fill="none" xmlns="http://www.w3.org/2000/svg">
<g clip-path="url(#clip0_28_10)">
<path d="M93.1201 281.02L68.7301 356.23C67.7101 358.77 66.1901 360.3 63.1401 360.3H4.19006C0.63006 360.3 -0.379941 358.27 0.120059 355.22L101.76 61.9999C103.79 56.4099 105.83 50.3099 106.84 30.9999C106.84 28.9699 108.36 27.4399 109.89 27.4399H191.2C193.74 27.4399 194.76 27.9499 195.27 30.4899L310.63 355.72C311.65 358.26 311.14 360.29 308.09 360.29H242.03C238.98 360.29 237.46 359.27 236.44 356.73L210.52 281.01H93.1201V281.02ZM191.71 217.5C181.55 183.96 161.22 122.47 151.56 86.3899H151.05C142.92 120.44 124.62 176.34 111.41 217.5H191.7H191.71Z" fill="white"/>
<path d="M403.62 107.73C407.18 107.73 408.7 109.25 409.72 112.3C412.26 118.91 414.8 129.58 415.31 140.76C432.08 120.94 460.03 102.65 496.11 102.65C499.16 102.65 500.18 103.67 500.18 106.72V169.23C500.18 171.77 499.16 172.79 495.61 172.79C459.02 171.27 429.55 182.45 418.88 194.64L418.37 356.24C418.37 359.29 417.35 360.31 413.8 360.31H352.82C348.75 360.31 347.74 358.79 347.74 355.74V180.4C347.74 158.55 347.23 129.07 345.2 111.29C345.2 108.75 345.71 107.73 348.25 107.73H403.64H403.62Z" fill="white"/>
<path d="M769.5 107.73C773.06 107.73 774.58 110.27 772.55 112.81C756.8 131.61 695.81 199.2 676.5 220.04C675.99 220.55 675.99 221.56 676.5 222.07C705.97 258.66 754.25 317.61 785.76 355.72C787.79 357.24 786.27 360.29 783.22 360.29H702.42C698.86 360.29 697.85 358.77 695.81 356.73C680.06 337.42 636.35 280 612.47 248.49V355.21C612.47 358.77 611.45 360.29 607.9 360.29H546.41C542.34 360.29 541.33 358.77 541.33 355.21V4.07C541.33 2.04 542.35 0 546.41 0H607.9C610.44 0 612.47 1.02 612.47 4.07V212.93C638.9 181.42 686.16 124.51 696.83 111.29C699.37 108.24 700.9 107.73 703.94 107.73H769.5Z" fill="white"/>
<path d="M1011.39 303.89C1011.39 317.1 1011.39 327.77 1012.41 339.97C1012.41 340.99 1012.41 342 1011.39 342.51C966.67 359.79 937.2 365.38 900.61 365.38C844.2 365.38 797.96 339.46 797.96 280.51C797.96 226.64 845.22 198.19 912.81 198.19C926.53 198.19 938.22 198.19 942.79 199.21V195.65C942.79 185.99 936.69 163.63 894 163.63C868.59 163.63 846.23 168.71 826.92 177.35C824.89 178.37 822.35 177.35 822.35 174.81V123.48C822.35 120.94 822.86 119.41 825.91 118.4C848.27 107.73 877.24 102.65 905.69 102.65C978.87 102.65 1011.39 147.88 1011.39 205.81V303.89ZM942.79 251.55C934.66 250.53 927.54 250.03 917.38 250.03C881.3 250.03 866.56 261.72 866.56 280.01C866.56 296.78 879.27 310.5 911.28 310.5C922.97 310.5 933.13 308.98 942.79 305.93V251.55V251.55Z" fill="white"/>
<path d="M527.09 669.65L502.7 744.86C501.68 747.4 500.16 748.93 497.11 748.93H438.16C434.6 748.93 433.59 746.9 434.09 743.85L535.73 450.63C537.76 445.04 539.8 438.94 540.81 419.63C540.81 417.6 542.33 416.07 543.86 416.07H625.17C627.71 416.07 628.73 416.58 629.24 419.12L744.6 744.35C745.62 746.89 745.11 748.92 742.06 748.92H676C672.95 748.92 671.43 747.9 670.41 745.36L644.49 669.64H527.1L527.09 669.65ZM625.68 606.13C615.52 572.59 595.19 511.1 585.53 475.02H585.02C576.89 509.07 558.59 564.97 545.38 606.13H625.67H625.68Z" fill="white"/>
<path d="M1001.22 692.52C1001.22 718.44 1003.25 734.19 1004.27 744.86C1004.78 747.91 1003.25 748.93 999.7 748.93H945.83C941.76 748.93 940.75 747.91 939.73 745.37C938.71 740.8 937.19 734.19 936.68 729.62C914.32 748.93 888.91 754.01 867.06 754.01C816.24 754.01 781.18 726.06 781.18 655.93V500.43C781.18 496.87 782.2 496.36 785.75 496.36H847.75C850.8 496.36 851.31 497.38 851.31 500.43V647.8C851.31 675.24 863 693.03 890.95 693.03C907.72 693.03 919.41 687.95 930.59 678.29V500.43C930.59 497.38 932.11 496.36 935.67 496.36H997.16C1000.72 496.36 1001.23 497.38 1001.23 500.43V692.52H1001.22Z" fill="white"/>
<path d="M1214.66 102.65C1187.73 102.65 1163.84 111.29 1142.5 128.57C1141.48 121.46 1140.47 116.37 1138.43 111.8C1137.41 109.26 1135.89 107.73 1131.82 107.73H1078.46C1075.41 107.73 1074.39 109.25 1074.9 111.8C1075.92 122.98 1076.93 149.41 1076.93 166.68V349.16C1076.93 349.23 1076.93 349.3 1076.93 349.38V683.88C1076.93 740.29 1104.37 754.01 1140.96 754.01C1156.71 754.01 1166.37 751.98 1172.47 749.44C1175.52 748.42 1176.03 747.41 1176.03 743.34V699.64C1176.03 697.1 1175.52 696.08 1173.49 696.08C1168.92 696.59 1168.41 696.59 1164.34 696.59C1152.14 696.59 1147.57 691.51 1147.57 677.28V356.31C1147.57 356.31 1147.57 356.26 1147.57 356.24V179.9C1158.24 170.24 1172.47 164.15 1189.75 164.15C1216.17 164.15 1229.39 180.41 1229.39 210.9V355.73C1229.39 358.78 1230.91 360.3 1234.47 360.3H1295.45C1299.01 360.3 1300.02 358.78 1300.02 355.73V204.8C1300.02 122.98 1253.78 102.66 1214.65 102.66L1214.66 102.65Z" fill="white"/>
<path d="M1225.83 429.79C1225.83 406.92 1242.6 390.66 1265.47 390.66C1289.86 390.66 1304.6 406.92 1304.6 429.79C1304.6 452.66 1288.85 469.43 1264.96 469.43C1241.07 469.43 1225.83 453.68 1225.83 429.79ZM1229.39 500.43C1229.39 497.89 1230.41 496.36 1233.46 496.36H1295.97C1299.02 496.36 1300.04 497.38 1300.04 500.43V744.36C1300.04 747.41 1299.53 748.93 1295.47 748.93H1234.49C1230.93 748.93 1229.41 747.41 1229.41 744.36V500.43H1229.39Z" fill="white"/>
<path d="M1574.43 692.52C1574.43 705.73 1574.43 716.4 1575.45 728.6C1575.45 729.62 1575.45 730.63 1574.43 731.14C1529.71 748.42 1500.24 754.01 1463.65 754.01C1407.24 754.01 1361 728.09 1361 669.14C1361 615.27 1408.26 586.81 1475.85 586.81C1489.57 586.81 1501.26 586.81 1505.83 587.83V584.27C1505.83 574.61 1499.73 552.26 1457.04 552.26C1431.63 552.26 1409.27 557.34 1389.96 565.98C1387.93 567 1385.39 565.98 1385.39 563.44V512.11C1385.39 509.57 1385.9 508.04 1388.95 507.03C1411.31 496.36 1440.28 491.28 1468.73 491.28C1541.91 491.28 1574.43 536.51 1574.43 594.44V692.52V692.52ZM1505.83 640.18C1497.7 639.16 1490.58 638.66 1480.42 638.66C1444.34 638.66 1429.6 650.35 1429.6 668.64C1429.6 685.41 1442.31 699.13 1474.32 699.13C1486.01 699.13 1496.17 697.61 1505.83 694.56V640.18Z" fill="white"/>
</g>
<defs>
<clipPath id="clip0_28_10">
<rect width="1575.45" height="754.01" fill="white"/>
</clipPath>
</defs>
</svg>
