<svg width="495" height="483" viewBox="0 0 495 483" fill="none" xmlns="http://www.w3.org/2000/svg">
<path d="M406.98 0H87.5781C39.21 0 0 39.21 0 87.5781V394.616C0 442.984 39.21 482.194 87.5781 482.194H406.98C455.348 482.194 494.558 442.984 494.558 394.616V87.5781C494.558 39.21 455.348 0 406.98 0Z" fill="#001E36"/>
<path d="M111.361 338.144V126.146C111.361 124.601 112.025 123.824 113.353 123.824C116.887 123.824 120.115 123.772 124.983 123.658C129.846 123.549 135.098 123.438 140.741 123.326C146.382 123.217 152.354 123.106 158.658 122.994C164.96 122.885 171.208 122.83 177.402 122.828C194.208 122.828 208.363 124.929 219.868 129.132C230.245 132.642 239.709 138.422 247.571 146.052C254.235 152.665 259.385 160.645 262.666 169.441C265.769 178.002 267.342 187.042 267.311 196.148C267.311 213.846 263.219 228.444 255.036 239.942C246.798 251.487 235.219 260.229 221.859 264.99C207.924 270.189 192.44 271.953 175.412 271.953C170.544 271.953 167.115 271.897 165.126 271.787C163.136 271.677 160.151 271.622 156.169 271.621V337.813C156.227 338.218 156.19 338.632 156.06 339.021C155.931 339.409 155.712 339.763 155.423 340.052C155.133 340.342 154.78 340.56 154.391 340.69C154.002 340.819 153.589 340.857 153.183 340.799H113.684C112.134 340.799 111.361 339.917 111.361 338.144V338.144ZM156.169 163.635V232.781C159.041 233.004 161.695 233.114 164.131 233.112H175.079C183.135 233.086 191.138 231.808 198.801 229.325C205.374 227.373 211.247 223.573 215.721 218.377C220.034 213.292 222.19 206.214 222.191 197.144C222.366 190.727 220.696 184.393 217.379 178.897C213.893 173.581 208.854 169.469 202.948 167.119C195.236 164.122 186.999 162.711 178.729 162.972C173.42 162.972 168.72 163.027 164.629 163.138C160.534 163.252 157.714 163.418 156.169 163.635V163.635Z" fill="#31A8FF"/>
<path d="M395.587 220.208C389.352 217.005 382.711 214.661 375.847 213.241C368.283 211.506 360.549 210.615 352.789 210.587C348.591 210.473 344.399 210.976 340.348 212.08C337.769 212.654 335.477 214.123 333.878 216.227C332.797 217.909 332.221 219.867 332.22 221.867C332.28 223.807 332.98 225.673 334.21 227.175C336.148 229.442 338.516 231.302 341.177 232.649C345.907 235.197 350.781 237.467 355.774 239.45C366.909 243.178 377.549 248.247 387.458 254.546C394.209 258.806 399.795 264.678 403.715 271.632C407.011 278.217 408.662 285.503 408.526 292.865C408.724 302.587 405.946 312.137 400.564 320.236C394.801 328.456 386.797 334.848 377.505 338.648C367.438 343.071 354.997 345.282 340.182 345.284C330.77 345.379 321.374 344.49 312.147 342.63C304.878 341.297 297.801 339.068 291.08 335.995C290.355 335.62 289.751 335.047 289.34 334.342C288.928 333.636 288.727 332.829 288.758 332.013V296.182C288.718 295.832 288.774 295.477 288.92 295.155C289.066 294.834 289.297 294.558 289.588 294.358C289.873 294.197 290.2 294.126 290.526 294.156C290.852 294.186 291.161 294.314 291.412 294.524C299.349 299.204 307.968 302.618 316.958 304.643C324.881 306.629 333.009 307.686 341.177 307.794C348.916 307.794 354.612 306.799 358.263 304.808C359.911 304.054 361.306 302.837 362.278 301.306C363.249 299.776 363.756 297.996 363.737 296.183C363.737 293.311 362.078 290.546 358.761 287.889C355.443 285.234 348.697 282.027 338.522 278.267C328.105 274.641 318.228 269.619 309.161 263.338C302.676 258.828 297.336 252.863 293.568 245.92C290.306 239.382 288.656 232.159 288.758 224.853C288.739 216.075 291.151 207.463 295.725 199.97C300.94 191.72 308.429 185.153 317.29 181.06C327.02 176.197 339.185 173.764 353.784 173.761C362.335 173.692 370.877 174.302 379.33 175.586C385.452 176.362 391.437 177.981 397.115 180.396C397.566 180.525 397.98 180.757 398.325 181.074C398.671 181.391 398.938 181.783 399.105 182.221C399.33 183.031 399.441 183.868 399.437 184.709V218.217C399.46 218.607 399.381 218.997 399.206 219.346C399.031 219.695 398.768 219.993 398.442 220.208C397.999 220.429 397.51 220.544 397.015 220.544C396.519 220.544 396.031 220.429 395.587 220.208V220.208Z" fill="#31A8FF"/>
</svg>
