<svg width="939" height="951" viewBox="0 0 939 951" fill="none" xmlns="http://www.w3.org/2000/svg">
<path d="M0.223634 3.72412C-3.52637 9.72412 40.7236 200.224 69.9736 305.974C77.4736 332.974 116.474 488.974 156.224 652.474C212.474 880.474 231.974 950.974 240.974 950.974C246.974 950.974 289.724 914.224 335.474 869.974C381.224 825.724 464.474 745.474 519.974 691.474C575.474 638.224 657.974 558.724 703.724 514.474C748.724 470.974 820.724 401.974 863.474 361.474C906.974 320.224 939.974 283.474 938.474 277.474C936.974 270.724 921.224 261.724 902.474 256.474C883.724 251.224 825.224 234.724 771.224 219.724C717.974 204.724 666.974 189.724 658.724 185.974C650.474 182.224 601.724 167.224 549.974 152.974C498.224 138.724 408.974 113.974 351.224 97.4741C293.474 80.2241 197.474 53.2241 137.474 35.9741C77.4736 18.7241 23.4736 2.97412 16.7236 0.724121C9.97363 -0.775879 2.47363 -0.0258789 0.223634 3.72412ZM92.4736 50.9741C111.224 55.4741 141.224 64.4741 159.974 71.2241C178.724 77.2241 198.224 83.9741 204.224 85.4741C210.974 87.7241 190.724 111.724 147.974 151.474C105.224 191.974 79.7236 211.474 75.9736 206.224C73.7236 200.974 64.7236 170.224 56.4736 137.224C29.4736 29.9741 30.2236 34.4741 45.2236 38.9741C52.7236 40.4741 73.7236 46.4741 92.4736 50.9741ZM348.974 125.974C387.224 137.974 422.474 148.474 427.724 148.474C432.974 148.474 437.474 150.724 437.474 152.974C437.474 155.224 408.224 185.974 372.224 220.474L306.224 283.474L289.724 214.474C265.724 111.724 264.974 103.474 272.474 103.474C276.224 103.474 310.724 113.224 348.974 125.974ZM245.474 149.974C257.474 191.224 279.974 278.974 279.974 285.724C279.974 290.224 256.724 284.224 150.224 252.724L99.2236 237.724L165.224 174.724C201.224 140.224 231.974 111.724 232.724 110.974C232.724 110.974 238.724 128.974 245.474 149.974ZM615.974 203.224L670.724 218.974L605.474 281.974C570.224 316.474 537.974 341.974 534.974 338.224C531.974 335.224 521.474 298.474 512.474 257.224C502.724 215.974 493.724 178.474 492.224 173.224C489.974 167.224 499.724 167.974 525.224 176.224C544.724 182.224 585.974 194.224 615.974 203.224ZM477.224 228.724C483.974 257.224 492.974 294.724 497.474 312.724C501.974 330.724 504.224 347.224 501.974 348.724C498.974 351.724 375.974 320.974 340.724 308.974C333.224 306.724 349.724 284.974 392.474 242.224C427.724 206.974 457.724 178.474 460.724 178.474C462.974 178.474 470.474 200.974 477.224 228.724ZM753.974 241.474C771.974 247.474 810.974 259.474 840.974 268.474C904.724 287.224 906.224 282.724 819.224 364.474L762.974 417.724L746.474 348.724C736.724 310.474 726.974 268.474 723.224 254.974C719.474 242.224 717.974 230.974 719.474 230.974C720.974 230.974 736.724 235.474 753.974 241.474ZM707.474 311.224C717.224 351.724 727.724 390.724 731.474 398.224C735.224 405.724 737.474 413.974 735.224 415.474C733.724 417.724 694.724 408.724 648.224 395.974C602.474 383.974 561.974 373.474 558.974 373.474C555.224 373.474 683.474 240.724 690.224 239.224C690.974 238.474 698.474 271.474 707.474 311.224ZM171.224 287.974C208.724 298.474 246.224 309.724 255.224 311.974C270.224 316.474 264.974 323.224 204.974 382.474C166.724 419.224 135.974 444.724 132.974 440.224C128.474 432.724 93.2236 286.474 92.4736 273.724C92.4736 266.224 96.9736 266.974 171.224 287.974ZM469.724 374.224L498.224 383.974L432.974 446.224C397.724 481.474 366.974 507.724 364.724 505.474C362.474 503.224 351.224 462.724 339.974 416.224L319.724 329.974L380.474 347.224C414.224 356.974 453.974 368.974 469.724 374.224ZM323.474 463.474C331.724 494.224 337.724 520.474 336.974 521.224C335.474 523.474 215.474 489.724 183.224 478.474L158.474 468.724L224.474 402.724L291.224 336.724L300.224 371.974C305.474 391.474 315.974 432.724 323.474 463.474ZM639.974 422.974C675.224 433.474 708.224 443.974 713.474 445.474C726.224 449.224 705.974 474.724 639.224 536.974L590.474 581.974L573.224 502.474C563.474 458.224 552.224 416.224 548.474 408.724C540.224 392.974 533.474 391.474 639.974 422.974ZM535.724 467.974C543.974 500.974 553.724 539.224 557.474 553.474C561.224 567.724 562.724 580.474 561.224 582.724C557.474 586.474 502.724 572.974 435.224 551.974L383.474 536.224L450.224 470.224C486.224 434.224 516.974 405.724 518.474 407.224C519.974 407.974 527.474 435.724 535.724 467.974ZM240.974 524.974L327.224 548.224L260.474 613.474C223.724 649.474 192.224 677.974 191.474 677.224C186.224 672.724 147.224 500.974 150.974 500.974C153.224 500.974 193.724 511.474 240.974 524.974ZM459.974 587.974C495.224 598.474 531.224 608.974 540.224 611.224C555.224 614.974 549.974 621.724 491.474 677.974C456.224 712.474 424.724 740.974 422.474 740.974C420.224 740.974 409.724 701.974 399.224 654.724C386.474 599.224 382.724 568.474 387.974 568.474C392.474 568.474 424.724 577.474 459.974 587.974ZM360.224 611.224C364.724 631.474 373.724 668.974 380.474 695.224C387.224 721.474 391.724 743.974 390.224 745.474C389.474 746.974 369.974 742.474 347.474 736.474C324.974 729.724 286.724 719.974 263.474 713.224C239.474 707.224 219.974 698.974 219.974 695.974C219.974 688.474 338.474 575.974 345.974 575.974C348.974 575.974 355.724 591.724 360.224 611.224ZM384.974 776.974C387.224 778.474 356.474 809.974 318.224 846.724C279.224 882.724 246.974 911.974 246.224 911.224C245.474 910.474 237.224 875.974 228.224 834.724C219.224 793.474 209.474 752.224 207.974 743.224C203.474 726.724 204.224 727.474 292.724 749.974C341.474 763.474 382.724 774.724 384.974 776.974Z" fill="black"/>
</svg>
